<svg width="102" height="50" viewBox="0 0 102 50" fill="none" xmlns="http://www.w3.org/2000/svg">
<g clip-path="url(#clip0_286_89)">
<path d="M12.9953 2.1875H0.320801M2.09523 0L2.09523 50M12.9953 47.8125H0.320801" stroke="#F26C21" stroke-width="10"/>
<path d="M13.5469 36L18.5112 8.80005H27.0123L31.9766 36H27.499L26.6229 31.08H18.9006L18.0245 36H13.5469ZM21.983 13.36L19.7442 26.2801H25.7793L23.5405 13.36H21.983ZM34.5257 36V16H38.8411V18.12C40.6581 16.7867 42.3887 15.92 44.0326 15.52V20.9201C42.2804 21.3734 40.777 21.84 39.5225 22.32L38.8735 22.6V36H34.5257ZM46.5981 36V16H50.9136V18.12C52.7306 16.7867 54.4611 15.92 56.105 15.52V20.9201C54.3529 21.3734 52.8494 21.84 51.5949 22.32L50.946 22.6V36H46.5981ZM71.0977 22.24V30.5601C71.141 31.2001 71.2275 31.6535 71.3572 31.92C71.487 32.16 71.7575 32.3335 72.1684 32.44L72.0386 36.48C70.9354 36.48 70.0485 36.3866 69.378 36.2C68.7291 36.0135 68.0692 35.64 67.3988 35.08C65.8413 36.0135 64.2514 36.48 62.6291 36.48C59.2762 36.48 57.5998 34.2935 57.5998 29.92C57.5998 27.7866 58.065 26.28 58.9951 25.4C59.9251 24.4934 61.3528 23.96 63.278 23.8L66.7498 23.48V22.24C66.7498 21.4134 66.5985 20.8534 66.2956 20.5601C65.9926 20.24 65.5059 20.08 64.8355 20.08L58.7355 20.4L58.6057 16.68C60.9203 15.9067 63.1158 15.52 65.1924 15.52C67.2905 15.52 68.794 16.0534 69.7025 17.12C70.6325 18.1867 71.0977 19.8934 71.0977 22.24ZM63.7972 27.52C62.5857 27.6535 61.9802 28.4535 61.9802 29.92C61.9802 31.3866 62.5102 32.12 63.57 32.12C64.3921 32.12 65.2897 31.96 66.2631 31.64L66.7498 31.4801V27.2L63.7972 27.52ZM73.5281 16H77.8111L80.7637 31.44H81.51L84.4627 16H88.7456L83.035 44.4001H78.7845L80.5691 36H77.5191L73.5281 16Z" fill="#2E3092"/>
<path d="M89.2957 2.1875H101.97M100.196 0V50M89.2957 47.8125H101.97" stroke="#F26C21" stroke-width="10"/>
</g>
<defs>
<clipPath id="clip0_286_89">
<rect width="101.649" height="50" fill="white" transform="translate(0.320801)"/>
</clipPath>
</defs>
</svg>
