<svg width="376" height="318" viewBox="0 0 376 318" fill="none" xmlns="http://www.w3.org/2000/svg">
<path d="M168.457 39.6485C145.86 52.974 50.2055 113.34 5.4971 205.129C4.0052 208.195 5.11891 211.941 7.97701 213.776C30.4018 228.167 126.786 283.157 263.749 263.755C267.179 263.267 269.615 260.088 269.255 256.549C266.734 231.851 252.496 138.314 176.836 41.3196C174.809 38.7244 171.242 38.0078 168.457 39.6485Z" stroke="#F26C21" stroke-opacity="0.55"/>
<path d="M250.177 55.3007C225.176 63.2461 118.461 100.738 54.392 180.231C52.2533 182.887 52.5027 186.787 54.8791 189.214C73.5258 208.248 155.204 283.364 293.042 295.024C296.494 295.313 299.579 292.759 300.018 289.228C303.073 264.59 310.073 170.235 257.973 58.8001C256.576 55.8178 253.259 54.3232 250.177 55.3007Z" stroke="#2E3092" stroke-opacity="0.55" stroke-width="4"/>
</svg>
