<svg width="102" height="50" viewBox="0 0 102 50" fill="none" xmlns="http://www.w3.org/2000/svg">
<g clip-path="url(#clip0_286_89)">
<path d="M12.6745 2.1875H0M1.77443 0L1.77443 50M12.6745 47.8125H0" stroke="#F26C21" stroke-width="10"/>
<path d="M13.2261 36L18.1904 8.80005H26.6915L31.6558 36H27.1782L26.3021 31.08H18.5798L17.7037 36H13.2261ZM21.6622 13.36L19.4234 26.2801H25.4585L23.2197 13.36H21.6622ZM34.2049 36V16H38.5203V18.12C40.3373 16.7867 42.0679 15.92 43.7118 15.52V20.92C41.9596 21.3734 40.4562 21.84 39.2017 22.32L38.5527 22.6V36H34.2049ZM46.2773 36V16H50.5928V18.12C52.4098 16.7867 54.1403 15.92 55.7842 15.52V20.92C54.0321 21.3734 52.5286 21.84 51.2741 22.32L50.6252 22.6V36H46.2773ZM70.7769 22.24V30.5601C70.8202 31.2001 70.9067 31.6535 71.0364 31.92C71.1662 32.16 71.4367 32.3335 71.8476 32.4401L71.7178 36.48C70.6146 36.48 69.7277 36.3866 69.0572 36.2C68.4083 36.0135 67.7484 35.64 67.0779 35.08C65.5205 36.0135 63.9306 36.48 62.3083 36.48C58.9554 36.48 57.279 34.2935 57.279 29.92C57.279 27.7866 57.7442 26.2801 58.6743 25.4C59.6043 24.4934 61.032 23.96 62.9572 23.8L66.429 23.48V22.24C66.429 21.4134 66.2777 20.8534 65.9748 20.5601C65.6718 20.2401 65.1851 20.08 64.5147 20.08L58.4147 20.4L58.2849 16.68C60.5995 15.9067 62.795 15.52 64.8716 15.52C66.9697 15.52 68.4732 16.0534 69.3817 17.12C70.3117 18.1867 70.7769 19.8934 70.7769 22.24ZM63.4764 27.52C62.2649 27.6535 61.6594 28.4535 61.6594 29.92C61.6594 31.3866 62.1894 32.12 63.2492 32.12C64.0713 32.12 64.9689 31.96 65.9423 31.64L66.429 31.48V27.2L63.4764 27.52ZM73.2073 16H77.4903L80.4429 31.44H81.1892L84.1419 16H88.4248L82.7142 44.4001H78.4637L80.2483 36H77.1983L73.2073 16Z" fill="white"/>
<path d="M88.9751 2.1875H101.65M99.8752 0V50M88.9751 47.8125H101.65" stroke="#F26C21" stroke-width="10"/>
</g>
<defs>
<clipPath id="clip0_286_89">
<rect width="101.649" height="50" fill="white"/>
</clipPath>
</defs>
</svg>
