<svg width="242" height="204" viewBox="0 0 242 204" fill="none" xmlns="http://www.w3.org/2000/svg">
<path d="M108.156 25.4559C93.6483 34.0114 32.2341 72.7692 3.52943 131.701C2.57158 133.67 3.28662 136.075 5.12164 137.253C19.5193 146.493 81.4019 181.799 169.338 169.342C171.54 169.028 173.104 166.988 172.873 164.715C171.254 148.858 162.113 88.8032 113.536 26.5289C112.235 24.8626 109.945 24.4025 108.156 25.4559Z" fill="#FFCEB2"/>
<path d="M108.156 25.4559C93.6483 34.0114 32.2341 72.7692 3.52943 131.701C2.57158 133.67 3.28662 136.075 5.12164 137.253C19.5193 146.493 81.4019 181.799 169.338 169.342C171.54 169.028 173.104 166.988 172.873 164.715C171.254 148.858 162.113 88.8032 113.536 26.5289C112.235 24.8626 109.945 24.4025 108.156 25.4559Z" fill="#FFCEB2"/>
<path d="M160.624 35.5053C144.573 40.6066 76.0566 64.678 34.9218 115.716C33.5487 117.421 33.7088 119.925 35.2345 121.483C47.2065 133.704 99.6471 181.932 188.145 189.417C190.361 189.603 192.342 187.963 192.624 185.696C194.585 169.878 199.079 109.298 165.629 37.7521C164.732 35.8374 162.603 34.8777 160.624 35.5053Z" stroke="#2E3092" stroke-opacity="0.55" stroke-width="4"/>
</svg>
