<svg width="22" height="18" viewBox="0 0 22 18" fill="none" xmlns="http://www.w3.org/2000/svg">
<path d="M0.166592 9.024C0.166592 6.256 0.662592 4.088 1.65459 2.52C2.66259 0.951999 4.32659 0.167999 6.64659 0.167999C8.96659 0.167999 10.6226 0.951999 11.6146 2.52C12.6226 4.088 13.1266 6.256 13.1266 9.024C13.1266 11.808 12.6226 13.992 11.6146 15.576C10.6226 17.16 8.96659 17.952 6.64659 17.952C4.32659 17.952 2.66259 17.16 1.65459 15.576C0.662592 13.992 0.166592 11.808 0.166592 9.024ZM9.81459 9.024C9.81459 7.84 9.73459 6.848 9.57459 6.048C9.43059 5.232 9.12659 4.568 8.66259 4.056C8.21459 3.544 7.54259 3.288 6.64659 3.288C5.75059 3.288 5.07059 3.544 4.60659 4.056C4.15859 4.568 3.85459 5.232 3.69459 6.048C3.55059 6.848 3.47859 7.84 3.47859 9.024C3.47859 10.24 3.55059 11.264 3.69459 12.096C3.83859 12.912 4.14259 13.576 4.60659 14.088C5.07059 14.584 5.75059 14.832 6.64659 14.832C7.54259 14.832 8.22259 14.584 8.68659 14.088C9.15059 13.576 9.45459 12.912 9.59859 12.096C9.74259 11.264 9.81459 10.24 9.81459 9.024ZM15.2742 3.6V0.503999H21.0582V18H17.6022V3.6H15.2742Z" fill="#F26C21"/>
</svg>
