<svg width="28" height="18" viewBox="0 0 28 18" fill="none" xmlns="http://www.w3.org/2000/svg">
<path d="M0.623563 9.24C0.623563 15.048 2.78356 17.952 7.10356 17.952C11.4076 17.952 13.5596 15.048 13.5596 9.24C13.5596 3.448 11.4076 0.551999 7.10356 0.551999C2.78356 0.551999 0.623563 3.448 0.623563 9.24ZM10.2716 9.24C10.2716 10.376 10.1916 11.344 10.0316 12.144C9.88756 12.944 9.58356 13.592 9.11956 14.088C8.67156 14.584 7.99956 14.832 7.10356 14.832C6.20756 14.832 5.52756 14.584 5.06356 14.088C4.61556 13.592 4.31156 12.944 4.15156 12.144C4.00756 11.344 3.93556 10.376 3.93556 9.24C3.93556 8.104 4.00756 7.144 4.15156 6.36C4.31156 5.56 4.61556 4.912 5.06356 4.416C5.52756 3.92 6.20756 3.672 7.10356 3.672C7.99956 3.672 8.67156 3.92 9.11956 4.416C9.58356 4.912 9.88756 5.56 10.0316 6.36C10.1916 7.144 10.2716 8.104 10.2716 9.24ZM17.8672 13.632C19.2752 12.416 20.3792 11.424 21.1792 10.656C21.9952 9.872 22.6672 9.072 23.1952 8.256C23.7392 7.424 24.0112 6.616 24.0112 5.832C24.0112 5.032 23.8192 4.408 23.4352 3.96C23.0512 3.512 22.4592 3.288 21.6592 3.288C20.8912 3.288 20.2912 3.544 19.8592 4.056C19.4272 4.568 19.2032 5.272 19.1872 6.168H15.9232C15.9392 4.904 16.2032 3.848 16.7152 3C17.2272 2.136 17.9152 1.496 18.7792 1.08C19.6432 0.647999 20.6032 0.431999 21.6592 0.431999C22.8912 0.431999 23.9392 0.663999 24.8032 1.128C25.6672 1.592 26.3152 2.224 26.7472 3.024C27.1792 3.808 27.3952 4.688 27.3952 5.664C27.3952 6.72 27.1312 7.728 26.6032 8.688C26.0912 9.648 25.4672 10.512 24.7312 11.28C24.0112 12.048 23.0592 12.968 21.8752 14.04L20.8192 15H27.8032V17.76H15.9712V15.288L17.8672 13.632Z" fill="#F26C21"/>
</svg>
