<svg width="28" height="19" viewBox="0 0 28 19" fill="none" xmlns="http://www.w3.org/2000/svg">
<path d="M0.330655 9.24C0.330655 15.048 2.49065 17.952 6.81066 17.952C11.1147 17.952 13.2667 15.048 13.2667 9.24C13.2667 3.448 11.1147 0.551999 6.81066 0.551999C2.49065 0.551999 0.330655 3.448 0.330655 9.24ZM9.97866 9.24C9.97866 10.376 9.89866 11.344 9.73866 12.144C9.59466 12.944 9.29066 13.592 8.82665 14.088C8.37865 14.584 7.70666 14.832 6.81066 14.832C5.91466 14.832 5.23466 14.584 4.77065 14.088C4.32265 13.592 4.01865 12.944 3.85865 12.144C3.71466 11.344 3.64266 10.376 3.64266 9.24C3.64266 8.104 3.71466 7.144 3.85865 6.36C4.01865 5.56 4.32265 4.912 4.77065 4.416C5.23466 3.92 5.91466 3.672 6.81066 3.672C7.70666 3.672 8.37865 3.92 8.82665 4.416C9.29066 4.912 9.59466 5.56 9.73866 6.36C9.89866 7.144 9.97866 8.104 9.97866 9.24ZM21.7743 0.119998C22.9263 0.119998 23.9103 0.327999 24.7263 0.743999C25.5583 1.144 26.1903 1.696 26.6223 2.4C27.0543 3.088 27.2703 3.864 27.2703 4.728C27.2703 5.752 27.0063 6.616 26.4783 7.32C25.9503 8.008 25.3583 8.464 24.7023 8.688V8.784C25.6143 9.088 26.3183 9.608 26.8143 10.344C27.3263 11.064 27.5823 11.992 27.5823 13.128C27.5823 14.616 27.0703 15.816 26.0463 16.728C25.0223 17.64 23.6063 18.096 21.7983 18.096C20.0223 18.096 18.5663 17.64 17.4303 16.728C16.2943 15.816 15.7023 14.48 15.6543 12.72H18.9183C18.9503 13.504 19.2143 14.136 19.7103 14.616C20.2223 15.08 20.9183 15.312 21.7983 15.312C22.6143 15.312 23.2383 15.088 23.6703 14.64C24.1183 14.176 24.3423 13.576 24.3423 12.84C24.3423 11.88 24.0383 11.2 23.4303 10.8C22.8383 10.384 21.8943 10.176 20.5983 10.176H19.9023V7.416H20.5983C22.8703 7.416 24.0063 6.656 24.0063 5.136C24.0063 4.48 23.7983 3.96 23.3823 3.576C22.9663 3.192 22.3823 3 21.6303 3C20.8463 3 20.2623 3.216 19.8783 3.648C19.4943 4.08 19.2703 4.56 19.2063 5.088H15.9183C15.9663 3.52 16.5183 2.304 17.5743 1.44C18.6463 0.559999 20.0463 0.119998 21.7743 0.119998Z" fill="#F26C21"/>
</svg>
