<svg width="30" height="18" viewBox="0 0 30 18" fill="none" xmlns="http://www.w3.org/2000/svg">
<path d="M0.580594 9.24C0.580594 15.048 2.74059 17.952 7.06059 17.952C11.3646 17.952 13.5166 15.048 13.5166 9.24C13.5166 3.448 11.3646 0.551999 7.06059 0.551999C2.74059 0.551999 0.580594 3.448 0.580594 9.24ZM10.2286 9.24C10.2286 10.376 10.1486 11.344 9.98859 12.144C9.84459 12.944 9.54059 13.592 9.07659 14.088C8.62859 14.584 7.95659 14.832 7.06059 14.832C6.16459 14.832 5.48459 14.584 5.02059 14.088C4.57259 13.592 4.26859 12.944 4.10859 12.144C3.96459 11.344 3.89259 10.376 3.89259 9.24C3.89259 8.104 3.96459 7.144 4.10859 6.36C4.26859 5.56 4.57259 4.912 5.02059 4.416C5.48459 3.92 6.16459 3.672 7.06059 3.672C7.95659 3.672 8.62859 3.92 9.07659 4.416C9.54059 4.912 9.84459 5.56 9.98859 6.36C10.1486 7.144 10.2286 8.104 10.2286 9.24ZM15.9762 14.592V11.952L23.8002 0.719999H27.7122V11.664H29.8242V14.592H27.7122V18H24.3522V14.592H15.9762ZM24.5682 4.368L19.7682 11.664H24.5682V4.368Z" fill="#F26C21"/>
</svg>
