<svg width="102" height="51" viewBox="0 0 102 51" fill="none" xmlns="http://www.w3.org/2000/svg">
<g clip-path="url(#clip0_414_419)">
<path d="M12.6745 2.57227H0M1.77443 0.384766L1.77443 50.3848M12.6745 48.1973H0" stroke="#F4F7FC" stroke-width="10"/>
<path d="M13.2261 36.3846L18.1904 9.18457H26.6915L31.6558 36.3846H27.1782L26.3021 31.4646H18.5798L17.7037 36.3846H13.2261ZM21.6622 13.7446L19.4234 26.6646H25.4585L23.2197 13.7446H21.6622ZM34.2049 36.3846V16.3846H38.5203V18.5046C40.3373 17.1712 42.0679 16.3046 43.7118 15.9046V21.3046C41.9597 21.7579 40.4562 22.2246 39.2017 22.7046L38.5528 22.9846V36.3846H34.2049ZM46.2774 36.3846V16.3846H50.5928V18.5046C52.4098 17.1712 54.1404 16.3046 55.7842 15.9046V21.3046C54.0321 21.7579 52.5287 22.2246 51.2741 22.7046L50.6252 22.9846V36.3846H46.2774ZM70.7769 22.6246V30.9446C70.8202 31.5846 70.9067 32.038 71.0365 32.3046C71.1662 32.5446 71.4367 32.718 71.8476 32.8246L71.7178 36.8646C70.6147 36.8646 69.7277 36.7711 69.0572 36.5846C68.4083 36.398 67.7484 36.0246 67.078 35.4646C65.5205 36.398 63.9306 36.8646 62.3083 36.8646C58.9554 36.8646 57.2791 34.678 57.2791 30.3046C57.2791 28.1711 57.7442 26.6646 58.6743 25.7846C59.6043 24.8779 61.032 24.3446 62.9572 24.1846L66.429 23.8646V22.6246C66.429 21.7979 66.2777 21.2379 65.9748 20.9446C65.6719 20.6246 65.1852 20.4646 64.5147 20.4646L58.4147 20.7846L58.2849 17.0646C60.5995 16.2912 62.795 15.9046 64.8716 15.9046C66.9697 15.9046 68.4732 16.4379 69.3817 17.5046C70.3117 18.5712 70.7769 20.2779 70.7769 22.6246ZM63.4764 27.9046C62.265 28.038 61.6594 28.838 61.6594 30.3046C61.6594 31.7711 62.1894 32.5046 63.2493 32.5046C64.0713 32.5046 64.9689 32.3446 65.9423 32.0246L66.429 31.8646V27.5846L63.4764 27.9046ZM73.2073 16.3846H77.4903L80.443 31.8246H81.1892L84.1419 16.3846H88.4248L82.7142 44.7846H78.4637L80.2483 36.3846H77.1983L73.2073 16.3846Z" fill="#F26C21"/>
<path d="M88.9749 2.57227H101.649M99.8749 0.384766V50.3848M88.9749 48.1973H101.649" stroke="#F4F7FC" stroke-width="10"/>
</g>
<defs>
<clipPath id="clip0_414_419">
<rect width="101.649" height="50" fill="white" transform="translate(0 0.384766)"/>
</clipPath>
</defs>
</svg>
