<svg width="64" height="65" viewBox="0 0 64 65" fill="none" xmlns="http://www.w3.org/2000/svg">
<path d="M32.0017 64.3848C14.3295 64.3848 0.0032959 50.0579 0.0032959 32.3848C0.0032959 14.7117 14.3295 0.384766 32.0017 0.384766C49.6739 0.384766 64.0001 14.7117 64.0001 32.3848C64.0001 50.0579 49.6739 64.3848 32.0017 64.3848Z" fill="#FCE2D3"/>
<path d="M0.00166321 33.7228L6.10352e-05 62.424C6.10352e-05 63.5066 0.878216 64.3832 1.96074 64.3832L30.7547 64.3608L0.00166321 33.7228Z" fill="#FCE2D3"/>
<g clip-path="url(#clip0_414_361)">
<path d="M32.0001 19.0518C26.8401 19.0518 22.6667 23.2251 22.6667 28.3851C22.6667 35.3851 32.0001 45.7184 32.0001 45.7184C32.0001 45.7184 41.3334 35.3851 41.3334 28.3851C41.3334 23.2251 37.1601 19.0518 32.0001 19.0518ZM32.0001 31.7184C30.1601 31.7184 28.6667 30.2251 28.6667 28.3851C28.6667 26.5451 30.1601 25.0518 32.0001 25.0518C33.8401 25.0518 35.3334 26.5451 35.3334 28.3851C35.3334 30.2251 33.8401 31.7184 32.0001 31.7184Z" fill="#F26C21"/>
</g>
<defs>
<clipPath id="clip0_414_361">
<rect width="32" height="32" fill="white" transform="translate(16.0001 16.3848)"/>
</clipPath>
</defs>
</svg>
