<svg width="64" height="65" viewBox="0 0 64 65" fill="none" xmlns="http://www.w3.org/2000/svg">
<path d="M32.0017 64.3848C14.3295 64.3848 0.0032959 50.0579 0.0032959 32.3848C0.0032959 14.7117 14.3295 0.384766 32.0017 0.384766C49.6739 0.384766 64.0001 14.7117 64.0001 32.3848C64.0001 50.0579 49.6739 64.3848 32.0017 64.3848Z" fill="#FCE2D3"/>
<path d="M0.00166321 33.7228L6.10352e-05 62.424C6.10352e-05 63.5066 0.878216 64.3832 1.96074 64.3832L30.7547 64.3608L0.00166321 33.7228Z" fill="#FCE2D3"/>
<g clip-path="url(#clip0_414_370)">
<path d="M32 19.0518C24.6667 19.0518 18.6667 25.0518 18.6667 32.3851C18.6667 39.7184 24.6667 45.7184 32 45.7184C39.3334 45.7184 45.3334 39.7184 45.3334 32.3851C45.3334 25.0518 39.3334 19.0518 32 19.0518ZM37.6 37.9851L30.6667 33.7184V25.7184H32.6667V32.6518L38.6667 36.2518L37.6 37.9851Z" fill="#F26C21"/>
</g>
<defs>
<clipPath id="clip0_414_370">
<rect width="32" height="32" fill="white" transform="translate(16.0001 16.3848)"/>
</clipPath>
</defs>
</svg>
