<svg width="64" height="64" viewBox="0 0 64 64" fill="none" xmlns="http://www.w3.org/2000/svg">
<path d="M32.0016 64C14.3294 64 0.00323486 49.6731 0.00323486 32C0.00323486 14.3269 14.3294 0 32.0016 0C49.6738 0 64 14.3269 64 32C64 49.6731 49.6738 64 32.0016 64Z" fill="#FCE2D3"/>
<path d="M0.00160217 33.3381L0 62.0392C0 63.1218 0.878155 63.9984 1.96068 63.9984L30.7546 63.976L0.00160217 33.3381Z" fill="#FCE2D3"/>
<g clip-path="url(#clip0_9_206)">
<rect width="32" height="32" transform="translate(16 16)" fill="#FCE2D3"/>
<path d="M42.68 36.5067C41.04 36.5067 39.4533 36.24 37.9733 35.76C37.5067 35.6 36.9867 35.72 36.6267 36.08L34.5333 38.7067C30.76 36.9067 27.2267 33.5067 25.3467 29.6L27.9467 27.3867C28.3067 27.0133 28.4133 26.4933 28.2667 26.0267C27.7733 24.5467 27.52 22.96 27.52 21.32C27.52 20.6 26.92 20 26.2 20H21.5867C20.8667 20 20 20.32 20 21.32C20 33.7067 30.3067 44 42.68 44C43.6267 44 44 43.16 44 42.4267V37.8267C44 37.1067 43.4 36.5067 42.68 36.5067Z" fill="#F26C21"/>
</g>
<defs>
<clipPath id="clip0_9_206">
<rect width="32" height="32" fill="white" transform="translate(16 16)"/>
</clipPath>
</defs>
</svg>
