<svg width="64" height="65" viewBox="0 0 64 65" fill="none" xmlns="http://www.w3.org/2000/svg">
<path d="M32.0017 64.3848C14.3295 64.3848 0.0032959 50.0579 0.0032959 32.3848C0.0032959 14.7117 14.3295 0.384766 32.0017 0.384766C49.6739 0.384766 64.0001 14.7117 64.0001 32.3848C64.0001 50.0579 49.6739 64.3848 32.0017 64.3848Z" fill="#FCE2D3"/>
<path d="M0.00166321 33.7228L6.10352e-05 62.424C6.10352e-05 63.5066 0.878216 64.3832 1.96074 64.3832L30.7547 64.3608L0.00166321 33.7228Z" fill="#FCE2D3"/>
<g clip-path="url(#clip0_414_383)">
<path d="M42.6667 21.7178H21.3334C19.8667 21.7178 18.6801 22.9178 18.6801 24.3844L18.6667 40.3844C18.6667 41.8511 19.8667 43.0511 21.3334 43.0511H42.6667C44.1334 43.0511 45.3334 41.8511 45.3334 40.3844V24.3844C45.3334 22.9178 44.1334 21.7178 42.6667 21.7178ZM42.6667 27.0511L32 33.7178L21.3334 27.0511V24.3844L32 31.0511L42.6667 24.3844V27.0511Z" fill="#F26C21"/>
</g>
<defs>
<clipPath id="clip0_414_383">
<rect width="32" height="32" fill="white" transform="translate(16.0001 16.3848)"/>
</clipPath>
</defs>
</svg>
