<svg width="233" height="198" viewBox="0 0 233 198" fill="none" xmlns="http://www.w3.org/2000/svg">
<path d="M104.389 24.9542C90.3867 33.2117 31.1115 70.6196 3.40648 127.499C2.48199 129.399 3.17213 131.721 4.94324 132.858C18.8395 141.776 78.5669 175.852 163.44 163.829C165.566 163.526 167.076 161.557 166.852 159.363C165.29 144.058 156.467 86.0952 109.582 25.9897C108.326 24.3815 106.116 23.9375 104.389 24.9542Z" fill="#FFCEB2"/>
<path d="M104.389 24.9542C90.3867 33.2117 31.1115 70.6196 3.40648 127.499C2.48199 129.399 3.17213 131.721 4.94324 132.858C18.8395 141.776 78.5669 175.852 163.44 163.829C165.566 163.526 167.076 161.557 166.852 159.363C165.29 144.058 156.467 86.0952 109.582 25.9897C108.326 24.3815 106.116 23.9375 104.389 24.9542Z" fill="#FFCEB2"/>
<path d="M35.4056 116.227C34.648 115.453 34.5714 114.202 35.2491 113.36C74.56 64.5847 140.191 41.4892 155.647 36.5772C156.607 36.2734 157.633 36.7342 158.07 37.6651C190.136 106.25 185.811 164.296 183.946 179.335C183.803 180.484 182.798 181.287 181.728 181.197C96.9731 174.028 46.7826 127.84 35.4056 116.227Z" stroke="#2E3092" stroke-width="4"/>
</svg>
