<svg width="598" height="535" viewBox="0 0 598 535" fill="none" xmlns="http://www.w3.org/2000/svg">
<path d="M349.082 67.6885C304.364 88.8771 114.467 185.875 15.3007 347.853C11.9927 353.258 13.4606 360.305 18.5512 364.081C58.3972 393.719 230.747 508.508 491.676 492.642C498.219 492.245 503.309 486.751 503.218 480.202C502.516 434.508 491.048 260.845 364.575 71.956C361.191 66.9083 354.576 65.0779 349.082 67.6885Z" fill="#E8E9FF"/>
<path d="M243.838 311.399C240.631 309.675 239.219 305.817 240.634 302.501C289.252 188.762 402.684 108.251 429.584 90.3306C432.489 88.3978 436.382 88.8843 438.726 91.462C538.428 201.28 562.356 312.175 567.145 341.499C567.745 345.186 565.313 348.712 561.641 349.483C394.599 384.403 272.341 326.706 243.838 311.399Z" stroke="#4B813B" stroke-opacity="0.55" stroke-width="2"/>
</svg>
